<mxfile host="65bd71144e">
    <diagram id="5JuQlA0LZU5E2gaA5NE3" name="ページ1">
        <mxGraphModel dx="890" dy="1753" grid="1" gridSize="10" guides="1" tooltips="1" connect="1" arrows="1" fold="1" page="1" pageScale="1" pageWidth="1600" pageHeight="1200" math="0" shadow="0">
            <root>
                <mxCell id="0"/>
                <mxCell id="1" parent="0"/>
                <mxCell id="82" value="Google Cloud Platform" style="shape=umlFrame;whiteSpace=wrap;html=1;width=210;height=40;boundedLbl=1;verticalAlign=middle;align=left;spacingLeft=5;fontSize=17;" vertex="1" parent="1">
                    <mxGeometry x="330" y="560" width="950" height="570" as="geometry"/>
                </mxCell>
                <mxCell id="72" value="Dockerfile" style="shape=umlFrame;whiteSpace=wrap;html=1;width=120;height=30;boundedLbl=1;verticalAlign=middle;align=left;spacingLeft=5;fontSize=17;" vertex="1" parent="1">
                    <mxGeometry x="580" y="30" width="310" height="430" as="geometry"/>
                </mxCell>
                <mxCell id="83" value="Local Machine" style="shape=umlFrame;whiteSpace=wrap;html=1;width=210;height=40;boundedLbl=1;verticalAlign=middle;align=left;spacingLeft=5;fontSize=17;" vertex="1" parent="1">
                    <mxGeometry x="330" y="19.55" width="950" height="480.45" as="geometry"/>
                </mxCell>
                <mxCell id="3" value="" style="editableCssRules=.*;shape=image;verticalLabelPosition=bottom;labelBackgroundColor=#ffffff;verticalAlign=top;aspect=fixed;imageAspect=0;image=data:image/svg+xml,PHN2ZyB4bWxucz0iaHR0cDovL3d3dy53My5vcmcvMjAwMC9zdmciIHhtbG5zOnY9Imh0dHBzOi8vdmVjdGEuaW8vbmFubyIgd2lkdGg9IjMwIiBoZWlnaHQ9IjIxIiB2aWV3Qm94PSIwIDAgMzAgMjEiPiYjeGE7CTxzdHlsZSB0eXBlPSJ0ZXh0L2NzcyI+JiN4YTsJLnN0MHtmaWxsOiM0Mjg1ZjQ7fSYjeGE7CS5zdDF7ZmlsbDojNjY5ZGY2O30mI3hhOwkuc3Qye2ZpbGw6I2FlY2JmYTt9JiN4YTsJLnN0M3tmaWxsOiNmZmY7fSYjeGE7CTwvc3R5bGU+JiN4YTsJPHBhdGggZD0iTTAgMGwxLjUgMS41aDZMOSAweiIgY2xhc3M9InN0MiIvPiYjeGE7CTxwYXRoIGQ9Ik05IDlWMEw3LjUgMS41djZ6IiBjbGFzcz0ic3QxIi8+JiN4YTsJPHBhdGggZD0iTTAgOWwxLjUtMS41di02TDAgMHoiIGNsYXNzPSJzdDIiLz4mI3hhOwk8cGF0aCBkPSJNOSA5TDcuNSA3LjVoLTZMMCA5eiIgY2xhc3M9InN0MCIvPiYjeGE7CTxwYXRoIGQ9Ik0xLjUgMS41aDZ2NmgtNnoiIGNsYXNzPSJzdDIiLz4mI3hhOwk8cGF0aCBkPSJNMTAuNSAwTDEyIDEuNWg2TDE5LjUgMHoiIGNsYXNzPSJzdDAiLz4mI3hhOwk8cGF0aCBkPSJNMTkuNSA5VjBMMTggMS41djZ6IiBjbGFzcz0ic3QxIi8+JiN4YTsJPHBhdGggZD0iTTEwLjUgOUwxMiA3LjV2LTZMMTAuNSAweiIgY2xhc3M9InN0MCIvPiYjeGE7CTxwYXRoIGQ9Ik0xOS41IDlMMTggNy41aC02TDEwLjUgOXoiIGNsYXNzPSJzdDEiLz4mI3hhOwk8cGF0aCBkPSJNMTIgMS41aDZ2NmgtNnoiIGNsYXNzPSJzdDMiLz4mI3hhOwk8cGF0aCBkPSJNMjEgMGwxLjUgMS41aDZMMzAgMHoiIGNsYXNzPSJzdDAiLz4mI3hhOwk8cGF0aCBkPSJNMzAgOVYwbC0xLjUgMS41djZ6IiBjbGFzcz0ic3QxIi8+JiN4YTsJPHBhdGggZD0iTTIxIDlsMS41LTEuNXYtNkwyMSAweiIgY2xhc3M9InN0MCIvPiYjeGE7CTxwYXRoIGQ9Ik0zMCA5bC0xLjUtMS41aC02TDIxIDl6IiBjbGFzcz0ic3QxIi8+JiN4YTsJPHBhdGggZD0iTTIyLjUgMS41aDZ2NmgtNnoiIGNsYXNzPSJzdDMiLz4mI3hhOwk8cGF0aCBkPSJNMCAxMmwxLjUgMS41aDZMOSAxMnoiIGNsYXNzPSJzdDAiLz4mI3hhOwk8cGF0aCBkPSJNOSAyMXYtOWwtMS41IDEuNXY2eiIgY2xhc3M9InN0MSIvPiYjeGE7CTxwYXRoIGQ9Ik0wIDIxbDEuNS0xLjV2LTZMMCAxMnoiIGNsYXNzPSJzdDAiLz4mI3hhOwk8cGF0aCBkPSJNOSAyMWwtMS41LTEuNWgtNkwwIDIxeiIgY2xhc3M9InN0MSIvPiYjeGE7CTxwYXRoIGQ9Ik0xLjUgMTMuNWg2djZoLTZ6IiBjbGFzcz0ic3QzIi8+JiN4YTsJPHBhdGggZD0iTTEwLjUgMTJsMS41IDEuNWg2bDEuNS0xLjV6IiBjbGFzcz0ic3QyIi8+JiN4YTsJPHBhdGggZD0iTTE5LjUgMjF2LTlMMTggMTMuNXY2eiIgY2xhc3M9InN0MSIvPiYjeGE7CTxwYXRoIGQ9Ik0xMC41IDIxbDEuNS0xLjV2LTZMMTAuNSAxMnoiIGNsYXNzPSJzdDIiLz4mI3hhOwk8cGF0aCBkPSJNMTkuNSAyMUwxOCAxOS41aC02TDEwLjUgMjF6IiBjbGFzcz0ic3QwIi8+JiN4YTsJPHBhdGggZD0iTTEyIDEzLjVoNnY2aC02em05LTEuNWwxLjUgMS41aDZMMzAgMTJ6IiBjbGFzcz0ic3QyIi8+JiN4YTsJPHBhdGggZD0iTTMwIDIxdi05bC0xLjUgMS41djZ6IiBjbGFzcz0ic3QxIi8+JiN4YTsJPHBhdGggZD0iTTIxIDIxbDEuNS0xLjV2LTZMMjEgMTJ6IiBjbGFzcz0ic3QyIi8+JiN4YTsJPHBhdGggZD0iTTMwIDIxbC0xLjUtMS41aC02TDIxIDIxeiIgY2xhc3M9InN0MCIvPiYjeGE7CTxwYXRoIGQ9Ik0yMi41IDEzLjVoNnY2aC02eiIgY2xhc3M9InN0MiIvPiYjeGE7PC9zdmc+;" parent="1" vertex="1">
                    <mxGeometry x="667.5" y="873" width="110" height="77" as="geometry"/>
                </mxCell>
                <mxCell id="4" value="" style="editableCssRules=.*;shape=image;verticalLabelPosition=bottom;labelBackgroundColor=#ffffff;verticalAlign=top;aspect=fixed;imageAspect=0;image=data:image/svg+xml,PHN2ZyB4bWxucz0iaHR0cDovL3d3dy53My5vcmcvMjAwMC9zdmciIHhtbG5zOnY9Imh0dHBzOi8vdmVjdGEuaW8vbmFubyIgd2lkdGg9IjIxLjk5OTAwMDU0OTMxNjQwNiIgaGVpZ2h0PSIyMC4zOTM5OTkwOTk3MzE0NDUiIHZpZXdCb3g9IjAgMCAyMS45OTkwMDA1NDkzMTY0MDYgMjAuMzkzOTk5MDk5NzMxNDQ1Ij4mI3hhOwk8c3R5bGUgdHlwZT0idGV4dC9jc3MiPiYjeGE7CS5zdDB7ZmlsbDojNDI4NWY0O2ZpbGwtcnVsZTpldmVub2RkfSYjeGE7CTwvc3R5bGU+JiN4YTsJPHBhdGggY2xhc3M9InN0MCIgZD0iTTUgMHYyLjQ1OEwxLjk5OSA0LjE5N3YxMi4wMUw1IDE3LjkzOHYyLjQ1NmwtNS0yLjg4N1YyLjg4NnptMTIgMGw0Ljk5OSAyLjg4NnYxNC42MjFMMTcgMjAuMzk0di0yLjQ1NmwzLTEuNzMxVjQuMTk3bC0zLTEuNzM5em0tNi4wMTYgNi42NzNsMi45NDctMS42NDYtMi45NDctMS42NDYtMi45NDcgMS42NDZ6bTMuMjY4LTEuMDk2bC0yLjg3MSAxLjY3OHYzLjI4N2wyLjg3MS0xLjY3NnpNNy43NzMgOC44NjZsMi44NzEgMS42NzRWNy4yNTZMNy43NzMgNS41Nzd6bS0uMjEyIDMuODc4bDIuODItMS42NDYtMi44Mi0xLjY0Ni0yLjgyIDEuNjQ2em0zLjEzMi0xLjA5OGwtMi44NzEgMS42Nzh2My4yODdsMi44NzEtMS42NzZ6bS02LjI2NCAzLjI4OUw3LjMgMTYuNjA5di0zLjI4NWwtMi44NzEtMS42Nzl6bTEwLjAyOS0yLjE5MWwyLjgyLTEuNjQ2LTIuODItMS42NDYtMi44MiAxLjY0NnptMy4xMzItMS4wOThsLTIuODcxIDEuNjc4djMuMjg3bDIuODcxLTEuNjc2em0tNi4yNjQgMy4yODlsMi44NzEgMS42NzR2LTMuMjg1bC0yLjg3MS0xLjY3OXoiLz4mI3hhOzwvc3ZnPg==;" parent="1" vertex="1">
                    <mxGeometry x="688.05" y="589.55" width="100" height="90" as="geometry"/>
                </mxCell>
                <mxCell id="5" value="1" style="editableCssRules=.*;shape=image;verticalLabelPosition=bottom;labelBackgroundColor=#ffffff;verticalAlign=top;aspect=fixed;imageAspect=0;image=data:image/svg+xml,PHN2ZyB4bWxucz0iaHR0cDovL3d3dy53My5vcmcvMjAwMC9zdmciIHhtbG5zOnY9Imh0dHBzOi8vdmVjdGEuaW8vbmFubyIgd2lkdGg9IjE3LjMyOTk5OTkyMzcwNjA1NSIgaGVpZ2h0PSIxOS42MTAwMDA2MTAzNTE1NjIiIHZpZXdCb3g9IjAgMCAxNy4zMjk5OTk5MjM3MDYwNTUgMTkuNjEwMDAwNjEwMzUxNTYyIj4mI3hhOwk8c3R5bGUgdHlwZT0idGV4dC9jc3MiPiYjeGE7CS5zdDB7ZmlsbDojNDI4NWY0O30mI3hhOwkuc3Qxe2ZpbGw6IzY2OWRmNjt9JiN4YTsJLnN0MntmaWxsOiNhZWNiZmE7fSYjeGE7CTwvc3R5bGU+JiN4YTsJPHBhdGggY2xhc3M9InN0MCIgZD0iTTEyLjE4IDcuOThMMTEgNy4yOWwtMy41MiA2LjEgMS4xOC42OCAzLjUyLTIuMDN6IiBmaWxsPSIjNDI4NWY0Ii8+JiN4YTsJPHBhdGggY2xhc3M9InN0MSIgZD0iTTYuMzIgMTIuNzJsMy41My02LjA5LTEuMTktLjY5LTMuNTIgMi4wNHY0LjA2eiIgZmlsbD0iIzY2OWRmNiIvPiYjeGE7CTxwYXRoIGNsYXNzPSJzdDIiIGQ9Ik0zLjc1IDcuOThMMCA1LjgxdjkuMmw3Ljk3IDQuNnYtNC4zM2wtNC4yMi0yLjQ0em05LjEzLTEuMmwzLjc2LTIuMTdMOC42NiAwIC42OCA0LjYxbDMuNzYgMi4xNyA0LjIyLTIuNDR6TTkuMzUgMTkuNjFsNy45OC00LjZ2LTkuMmwtMy43NiAyLjE3djQuODZsLTQuMjIgMi40NHoiIGZpbGw9IiNhZWNiZmEiLz4mI3hhOzwvc3ZnPg==;" parent="1" vertex="1">
                    <mxGeometry x="990" y="585" width="85" height="100" as="geometry"/>
                </mxCell>
                <mxCell id="21" value="Cloud Build" style="text;html=1;strokeColor=none;fillColor=none;align=center;verticalAlign=middle;whiteSpace=wrap;rounded=0;fontSize=32;" vertex="1" parent="1">
                    <mxGeometry x="910" y="699.9" width="240" height="29.1" as="geometry"/>
                </mxCell>
                <mxCell id="22" value="Developer" style="shape=umlActor;verticalLabelPosition=bottom;verticalAlign=top;html=1;outlineConnect=0;fontSize=32;" vertex="1" parent="1">
                    <mxGeometry x="120" y="290" width="30" height="60" as="geometry"/>
                </mxCell>
                <mxCell id="25" value="User" style="shape=umlActor;verticalLabelPosition=bottom;verticalAlign=top;html=1;outlineConnect=0;fontSize=32;" vertex="1" parent="1">
                    <mxGeometry x="1460" y="890" width="30" height="60" as="geometry"/>
                </mxCell>
                <mxCell id="26" value="" style="editableCssRules=.*;shape=image;verticalLabelPosition=bottom;labelBackgroundColor=#ffffff;verticalAlign=top;aspect=fixed;imageAspect=0;image=data:image/svg+xml,PHN2ZyB4bWxucz0iaHR0cDovL3d3dy53My5vcmcvMjAwMC9zdmciIHhtbG5zOnY9Imh0dHBzOi8vdmVjdGEuaW8vbmFubyIgd2lkdGg9IjM2NS40NjQ5OTY3NzA0MjQ5MyIgaGVpZ2h0PSIzNzkuMjIyOTk0NDYzNTc3OTUiIHZpZXdCb3g9IjAgMCA5Ni42OTU5OTkxNDU1MDc4MSAxMDAuMzM1OTk4NTM1MTU2MjUiPiYjeGE7PHN0eWxlIHR5cGU9InRleHQvY3NzIj4mI3hhOwkuc3Qwe2ZpbGw6IzQyODVmNDt9JiN4YTsJLnN0MXtmaWxsOiNhZWNiZmE7fSYjeGE7PC9zdHlsZT4mI3hhOwk8cGF0aCBjbGFzcz0ic3QwIiBkPSJNMjkuNzk0IDEwMC4zMzZMNDYuOTIgNTAuMTY4aDQ5Ljc3NnpNMCA5OS42NzFsMTIuOTc2LTQ5LjUwMkgyOS4yMkwxNi44OTcgOTIuMDU0eiIvPiYjeGE7CTxwYXRoIGNsYXNzPSJzdDEiIGQ9Ik0yOS43OTQgMEw0Ni45MiA1MC4xNjhoNDkuNzc2ek0wIC42NjZsMTIuOTc2IDQ5LjUwMkgyOS4yMkwxNi44OTcgOC4yODN6Ii8+JiN4YTs8L3N2Zz4=;fontSize=32;" vertex="1" parent="1">
                    <mxGeometry x="990" y="876.5" width="80" height="80" as="geometry"/>
                </mxCell>
                <mxCell id="27" value="Cloud Run" style="text;html=1;strokeColor=none;fillColor=none;align=center;verticalAlign=middle;whiteSpace=wrap;rounded=0;fontSize=32;" vertex="1" parent="1">
                    <mxGeometry x="910" y="976.5" width="240" height="29.1" as="geometry"/>
                </mxCell>
                <mxCell id="31" value="Datastore" style="text;html=1;strokeColor=none;fillColor=none;align=center;verticalAlign=middle;whiteSpace=wrap;rounded=0;fontSize=32;" vertex="1" parent="1">
                    <mxGeometry x="620" y="976.5" width="205" height="29.1" as="geometry"/>
                </mxCell>
                <mxCell id="41" value="Artifact Registry" style="text;html=1;strokeColor=none;fillColor=none;align=center;verticalAlign=middle;whiteSpace=wrap;rounded=0;fontSize=32;" vertex="1" parent="1">
                    <mxGeometry x="610" y="699.9" width="240" height="29.1" as="geometry"/>
                </mxCell>
                <mxCell id="47" value="" style="group" vertex="1" connectable="0" parent="1">
                    <mxGeometry x="1024.5" y="90.00000000000004" width="221" height="175.49999999999994" as="geometry"/>
                </mxCell>
                <mxCell id="35" value="Datastore Emulator" style="text;html=1;strokeColor=none;fillColor=none;align=center;verticalAlign=middle;whiteSpace=wrap;rounded=0;fontSize=32;" vertex="1" parent="47">
                    <mxGeometry y="103.50000000000001" width="205" height="29.1" as="geometry"/>
                </mxCell>
                <mxCell id="92" value="" style="sketch=0;aspect=fixed;html=1;points=[];align=center;image;fontSize=12;image=img/lib/mscae/Docker.svg;" vertex="1" parent="47">
                    <mxGeometry x="155" y="134.49999999999994" width="50" height="41" as="geometry"/>
                </mxCell>
                <mxCell id="48" value="" style="edgeStyle=elbowEdgeStyle;elbow=horizontal;endArrow=classic;html=1;fontSize=32;entryX=0;entryY=0.5;entryDx=0;entryDy=0;exitX=0.991;exitY=0.652;exitDx=0;exitDy=0;exitPerimeter=0;" edge="1" parent="1" source="93" target="95">
                    <mxGeometry width="50" height="50" relative="1" as="geometry">
                        <mxPoint x="548.3799999999999" y="254" as="sourcePoint"/>
                        <mxPoint x="688.55" y="349.5" as="targetPoint"/>
                    </mxGeometry>
                </mxCell>
                <mxCell id="49" value="" style="edgeStyle=elbowEdgeStyle;elbow=horizontal;endArrow=classic;html=1;fontSize=32;entryX=0;entryY=0.5;entryDx=0;entryDy=0;startArrow=none;" edge="1" parent="1" source="93">
                    <mxGeometry width="50" height="50" relative="1" as="geometry">
                        <mxPoint x="720" y="520" as="sourcePoint"/>
                        <mxPoint x="460" y="245" as="targetPoint"/>
                    </mxGeometry>
                </mxCell>
                <mxCell id="34" value="" style="editableCssRules=.*;shape=image;verticalLabelPosition=bottom;labelBackgroundColor=#ffffff;verticalAlign=top;aspect=fixed;imageAspect=0;image=data:image/svg+xml,PHN2ZyB4bWxucz0iaHR0cDovL3d3dy53My5vcmcvMjAwMC9zdmciIHhtbG5zOnY9Imh0dHBzOi8vdmVjdGEuaW8vbmFubyIgd2lkdGg9IjMwIiBoZWlnaHQ9IjIxIiB2aWV3Qm94PSIwIDAgMzAgMjEiPiYjeGE7CTxzdHlsZSB0eXBlPSJ0ZXh0L2NzcyI+JiN4YTsJLnN0MHtmaWxsOiM0Mjg1ZjQ7fSYjeGE7CS5zdDF7ZmlsbDojNjY5ZGY2O30mI3hhOwkuc3Qye2ZpbGw6I2FlY2JmYTt9JiN4YTsJLnN0M3tmaWxsOiNmZmY7fSYjeGE7CTwvc3R5bGU+JiN4YTsJPHBhdGggZD0iTTAgMGwxLjUgMS41aDZMOSAweiIgY2xhc3M9InN0MiIvPiYjeGE7CTxwYXRoIGQ9Ik05IDlWMEw3LjUgMS41djZ6IiBjbGFzcz0ic3QxIi8+JiN4YTsJPHBhdGggZD0iTTAgOWwxLjUtMS41di02TDAgMHoiIGNsYXNzPSJzdDIiLz4mI3hhOwk8cGF0aCBkPSJNOSA5TDcuNSA3LjVoLTZMMCA5eiIgY2xhc3M9InN0MCIvPiYjeGE7CTxwYXRoIGQ9Ik0xLjUgMS41aDZ2NmgtNnoiIGNsYXNzPSJzdDIiLz4mI3hhOwk8cGF0aCBkPSJNMTAuNSAwTDEyIDEuNWg2TDE5LjUgMHoiIGNsYXNzPSJzdDAiLz4mI3hhOwk8cGF0aCBkPSJNMTkuNSA5VjBMMTggMS41djZ6IiBjbGFzcz0ic3QxIi8+JiN4YTsJPHBhdGggZD0iTTEwLjUgOUwxMiA3LjV2LTZMMTAuNSAweiIgY2xhc3M9InN0MCIvPiYjeGE7CTxwYXRoIGQ9Ik0xOS41IDlMMTggNy41aC02TDEwLjUgOXoiIGNsYXNzPSJzdDEiLz4mI3hhOwk8cGF0aCBkPSJNMTIgMS41aDZ2NmgtNnoiIGNsYXNzPSJzdDMiLz4mI3hhOwk8cGF0aCBkPSJNMjEgMGwxLjUgMS41aDZMMzAgMHoiIGNsYXNzPSJzdDAiLz4mI3hhOwk8cGF0aCBkPSJNMzAgOVYwbC0xLjUgMS41djZ6IiBjbGFzcz0ic3QxIi8+JiN4YTsJPHBhdGggZD0iTTIxIDlsMS41LTEuNXYtNkwyMSAweiIgY2xhc3M9InN0MCIvPiYjeGE7CTxwYXRoIGQ9Ik0zMCA5bC0xLjUtMS41aC02TDIxIDl6IiBjbGFzcz0ic3QxIi8+JiN4YTsJPHBhdGggZD0iTTIyLjUgMS41aDZ2NmgtNnoiIGNsYXNzPSJzdDMiLz4mI3hhOwk8cGF0aCBkPSJNMCAxMmwxLjUgMS41aDZMOSAxMnoiIGNsYXNzPSJzdDAiLz4mI3hhOwk8cGF0aCBkPSJNOSAyMXYtOWwtMS41IDEuNXY2eiIgY2xhc3M9InN0MSIvPiYjeGE7CTxwYXRoIGQ9Ik0wIDIxbDEuNS0xLjV2LTZMMCAxMnoiIGNsYXNzPSJzdDAiLz4mI3hhOwk8cGF0aCBkPSJNOSAyMWwtMS41LTEuNWgtNkwwIDIxeiIgY2xhc3M9InN0MSIvPiYjeGE7CTxwYXRoIGQ9Ik0xLjUgMTMuNWg2djZoLTZ6IiBjbGFzcz0ic3QzIi8+JiN4YTsJPHBhdGggZD0iTTEwLjUgMTJsMS41IDEuNWg2bDEuNS0xLjV6IiBjbGFzcz0ic3QyIi8+JiN4YTsJPHBhdGggZD0iTTE5LjUgMjF2LTlMMTggMTMuNXY2eiIgY2xhc3M9InN0MSIvPiYjeGE7CTxwYXRoIGQ9Ik0xMC41IDIxbDEuNS0xLjV2LTZMMTAuNSAxMnoiIGNsYXNzPSJzdDIiLz4mI3hhOwk8cGF0aCBkPSJNMTkuNSAyMUwxOCAxOS41aC02TDEwLjUgMjF6IiBjbGFzcz0ic3QwIi8+JiN4YTsJPHBhdGggZD0iTTEyIDEzLjVoNnY2aC02em05LTEuNWwxLjUgMS41aDZMMzAgMTJ6IiBjbGFzcz0ic3QyIi8+JiN4YTsJPHBhdGggZD0iTTMwIDIxdi05bC0xLjUgMS41djZ6IiBjbGFzcz0ic3QxIi8+JiN4YTsJPHBhdGggZD0iTTIxIDIxbDEuNS0xLjV2LTZMMjEgMTJ6IiBjbGFzcz0ic3QyIi8+JiN4YTsJPHBhdGggZD0iTTMwIDIxbC0xLjUtMS41aC02TDIxIDIxeiIgY2xhc3M9InN0MCIvPiYjeGE7CTxwYXRoIGQ9Ik0yMi41IDEzLjVoNnY2aC02eiIgY2xhc3M9InN0MiIvPiYjeGE7PC9zdmc+;" vertex="1" parent="1">
                    <mxGeometry x="1080" y="100.00000000000004" width="110" height="77" as="geometry"/>
                </mxCell>
                <mxCell id="55" value="" style="endArrow=classic;html=1;fontSize=17;entryX=0;entryY=0.5;entryDx=0;entryDy=0;exitX=1;exitY=0.5;exitDx=0;exitDy=0;" edge="1" parent="1" source="96" target="34">
                    <mxGeometry relative="1" as="geometry">
                        <mxPoint x="810" y="138.5" as="sourcePoint"/>
                        <mxPoint x="1010" y="230" as="targetPoint"/>
                    </mxGeometry>
                </mxCell>
                <mxCell id="56" value="query" style="edgeLabel;resizable=0;html=1;align=center;verticalAlign=middle;fontSize=17;" connectable="0" vertex="1" parent="55">
                    <mxGeometry relative="1" as="geometry">
                        <mxPoint y="-28" as="offset"/>
                    </mxGeometry>
                </mxCell>
                <mxCell id="62" value="" style="endArrow=classic;html=1;fontSize=17;entryX=0;entryY=0.5;entryDx=0;entryDy=0;exitX=0.995;exitY=0.414;exitDx=0;exitDy=0;exitPerimeter=0;" edge="1" parent="1" source="93" target="96">
                    <mxGeometry relative="1" as="geometry">
                        <mxPoint x="550" y="239.96000000000004" as="sourcePoint"/>
                        <mxPoint x="686.0999999999999" y="138.5" as="targetPoint"/>
                        <Array as="points">
                            <mxPoint x="610" y="240"/>
                            <mxPoint x="610" y="139"/>
                        </Array>
                    </mxGeometry>
                </mxCell>
                <mxCell id="64" value="API Server" style="text;html=1;strokeColor=none;fillColor=none;align=center;verticalAlign=middle;whiteSpace=wrap;rounded=0;fontSize=17;" vertex="1" parent="1">
                    <mxGeometry x="690" y="76.55000000000001" width="120" height="30" as="geometry"/>
                </mxCell>
                <mxCell id="67" value="Web Server" style="text;html=1;strokeColor=none;fillColor=none;align=center;verticalAlign=middle;whiteSpace=wrap;rounded=0;fontSize=17;" vertex="1" parent="1">
                    <mxGeometry x="690" y="290" width="120" height="30" as="geometry"/>
                </mxCell>
                <mxCell id="68" value="DB" style="text;html=1;strokeColor=none;fillColor=none;align=center;verticalAlign=middle;whiteSpace=wrap;rounded=0;fontSize=17;" vertex="1" parent="1">
                    <mxGeometry x="1075" y="60.000000000000014" width="120" height="30" as="geometry"/>
                </mxCell>
                <mxCell id="69" value="" style="endArrow=classic;html=1;fontSize=17;entryX=0.5;entryY=0;entryDx=0;entryDy=0;exitX=0.51;exitY=1;exitDx=0;exitDy=0;exitPerimeter=0;" edge="1" parent="1" source="72" target="4">
                    <mxGeometry relative="1" as="geometry">
                        <mxPoint x="650" y="770" as="sourcePoint"/>
                        <mxPoint x="750" y="770" as="targetPoint"/>
                    </mxGeometry>
                </mxCell>
                <mxCell id="70" value="Push" style="edgeLabel;resizable=0;html=1;align=center;verticalAlign=middle;fontSize=17;" connectable="0" vertex="1" parent="69">
                    <mxGeometry relative="1" as="geometry">
                        <mxPoint x="32" as="offset"/>
                    </mxGeometry>
                </mxCell>
                <mxCell id="73" value="" style="endArrow=classic;html=1;fontSize=17;entryX=0;entryY=0.5;entryDx=0;entryDy=0;exitX=1;exitY=0.5;exitDx=0;exitDy=0;" edge="1" parent="1" source="4" target="5">
                    <mxGeometry relative="1" as="geometry">
                        <mxPoint x="746.2399999999998" y="470" as="sourcePoint"/>
                        <mxPoint x="748.0500000000002" y="599.55" as="targetPoint"/>
                    </mxGeometry>
                </mxCell>
                <mxCell id="74" value="Build" style="edgeLabel;resizable=0;html=1;align=center;verticalAlign=middle;fontSize=17;" connectable="0" vertex="1" parent="73">
                    <mxGeometry relative="1" as="geometry">
                        <mxPoint y="-15" as="offset"/>
                    </mxGeometry>
                </mxCell>
                <mxCell id="75" value="" style="endArrow=classic;html=1;fontSize=17;exitX=0;exitY=0.5;exitDx=0;exitDy=0;" edge="1" parent="1" source="26">
                    <mxGeometry relative="1" as="geometry">
                        <mxPoint x="798.0500000000002" y="644.55" as="sourcePoint"/>
                        <mxPoint x="780" y="917" as="targetPoint"/>
                    </mxGeometry>
                </mxCell>
                <mxCell id="76" value="query" style="edgeLabel;resizable=0;html=1;align=center;verticalAlign=middle;fontSize=17;" connectable="0" vertex="1" parent="75">
                    <mxGeometry relative="1" as="geometry">
                        <mxPoint y="-15" as="offset"/>
                    </mxGeometry>
                </mxCell>
                <mxCell id="77" value="Web &amp;amp; API Server" style="text;html=1;strokeColor=none;fillColor=none;align=center;verticalAlign=middle;whiteSpace=wrap;rounded=0;fontSize=17;" vertex="1" parent="1">
                    <mxGeometry x="1060" y="850" width="157.5" height="30" as="geometry"/>
                </mxCell>
                <mxCell id="78" value="" style="endArrow=classic;html=1;fontSize=17;entryX=0.5;entryY=0;entryDx=0;entryDy=0;exitX=0.5;exitY=1;exitDx=0;exitDy=0;" edge="1" parent="1" source="21" target="26">
                    <mxGeometry relative="1" as="geometry">
                        <mxPoint x="798.0500000000002" y="644.55" as="sourcePoint"/>
                        <mxPoint x="1000" y="645" as="targetPoint"/>
                    </mxGeometry>
                </mxCell>
                <mxCell id="79" value="Deploy" style="edgeLabel;resizable=0;html=1;align=center;verticalAlign=middle;fontSize=17;" connectable="0" vertex="1" parent="78">
                    <mxGeometry relative="1" as="geometry">
                        <mxPoint x="30" y="-13" as="offset"/>
                    </mxGeometry>
                </mxCell>
                <mxCell id="88" value="" style="endArrow=none;dashed=1;html=1;fontSize=17;entryX=1;entryY=0.5;entryDx=0;entryDy=0;" edge="1" parent="1" source="25" target="26">
                    <mxGeometry width="50" height="50" relative="1" as="geometry">
                        <mxPoint x="1480" y="930" as="sourcePoint"/>
                        <mxPoint x="870" y="550" as="targetPoint"/>
                    </mxGeometry>
                </mxCell>
                <mxCell id="89" value="" style="sketch=0;aspect=fixed;html=1;points=[];align=center;image;fontSize=12;image=img/lib/mscae/Docker.svg;" vertex="1" parent="1">
                    <mxGeometry x="500" y="261" width="50" height="41" as="geometry"/>
                </mxCell>
                <mxCell id="90" value="" style="sketch=0;aspect=fixed;html=1;points=[];align=center;image;fontSize=12;image=img/lib/mscae/Docker.svg;" vertex="1" parent="1">
                    <mxGeometry x="770" y="368" width="50" height="41" as="geometry"/>
                </mxCell>
                <mxCell id="91" value="" style="sketch=0;aspect=fixed;html=1;points=[];align=center;image;fontSize=12;image=img/lib/mscae/Docker.svg;" vertex="1" parent="1">
                    <mxGeometry x="780" y="155" width="50" height="41" as="geometry"/>
                </mxCell>
                <mxCell id="93" value="" style="shape=image;verticalLabelPosition=bottom;labelBackgroundColor=#ffffff;verticalAlign=top;aspect=fixed;imageAspect=0;image=data:image/svg+xml,PHN2ZyB4bWxucz0iaHR0cDovL3d3dy53My5vcmcvMjAwMC9zdmciIGlkPSJBcnQiIHZpZXdCb3g9IjAgMCAxNTAuODg3NTEgNTkuNzYyMTUiPjxkZWZzPjxzdHlsZT4uY2xzLTF7ZmlsbDojOTk5O30uY2xzLTJ7ZmlsbDojMDA5NjM5O30uY2xzLTN7ZmlsbDojZmZmO308L3N0eWxlPjwvZGVmcz48dGl0bGU+TkdJTlgtUGFydC1vZi1GNS1ob3Jpei1ibGFjay10eXBlPC90aXRsZT48cGF0aCBjbGFzcz0iY2xzLTEiIGQ9Ik0xMTMuNTcyNDgsNDkuNTM5NTRIMTEyLjI5MVY0Ny43ODNoMy4wMjY4M3YtLjc4NjE4aC0zLjg2MDYzdjMuMzE5NTRoMi4wNzcyNmMuNzQwMzYsMCwxLjE2NzUxLjM0MTU0LDEuMTY3NTEuOTU4NnYuNjczNzNjMCwuNjkzLS40NzQ0OCwxLjA4MjItMS4zMjg3NywxLjA4MjItLjgxNjMyLDAtMS4yOTExMS0uMzg5MTctMS4yOTExMS0xLjA4MjJ2LS42MjY0aC0uODMzNDl2LjYwNzQxYTIuMTU2ODYsMi4xNTY4NiwwLDAsMCw0LjI3NzUzLDBWNTEuMjk0YTEuNzQ1OTEsMS43NDU5MSwwLDAsMC0xLjk1MzY4LTEuNzU0NDEiIHRyYW5zZm9ybT0idHJhbnNsYXRlKC03LjE5Nzg0IC0wLjM1ODkyKSIvPjxwb2x5Z29uIGNsYXNzPSJjbHMtMSIgcG9pbnRzPSIxMDMuMzA2IDQ3LjQyNCAxMDMuMzA2IDQ2LjYzOCA5OS4yMTggNDYuNjM4IDk5LjIxOCA1My4zMjYgMTAwLjA1MiA1My4zMjYgMTAwLjA1MiA1MC42MzEgMTAyLjk3NCA1MC42MzEgMTAyLjk3NCA0OS44MzUgMTAwLjA1MiA0OS44MzUgMTAwLjA1MiA0Ny40MjQgMTAzLjMwNiA0Ny40MjQiLz48cGF0aCBjbGFzcz0iY2xzLTEiIGQ9Ik0xMDIuOTk5ODEsNDcuMTQ3NTVoLjQxNzUxdi0uNzY3NDhoLS41MTI0N2ExLjYwOSwxLjYwOSwwLDAsMC0xLjcwNjQ4LDEuODIxMzN2LjY5M2gtLjU1OTh2Ljc1Nzg0aC41NTk4djQuMDMyMTZoLjgwNTE2VjQ5LjY1MjI3aDEuMzI4MTh2LS43NTc4NGgtMS4zMjgxOHYtLjYyNjcxYzAtLjc5NzYyLjMxMzItMS4xMjAxNy45OTYyOC0xLjEyMDE3IiB0cmFuc2Zvcm09InRyYW5zbGF0ZSgtNy4xOTc4NCAtMC4zNTg5MikiLz48cGF0aCBjbGFzcz0iY2xzLTEiIGQ9Ik05Mi40NzkxMyw1Mi45MTY5NGMtLjY1NDc0LDAtLjk3NzI5LS4zMDM1NS0uOTc3MjktMS4wNzIyNVY0OS42NTIyN2gxLjMwOTQ4di0uNzU3ODRIOTEuNTAxODRWNDcuNDkwM2gtLjgwNTE2djEuNDA0MTNoLS42NDUxdi43NTc4NGguNjQ1MVY1Mi4wMjVjMCwxLjE0NzkxLjUzOTg4LDEuNjU5NDcsMS42MTE4MywxLjY1OTQ3aC41ODgxM3YtLjc2NzQ5WiIgdHJhbnNmb3JtPSJ0cmFuc2xhdGUoLTcuMTk3ODQgLTAuMzU4OTIpIi8+PHBhdGggY2xhc3M9ImNscy0xIiBkPSJNODkuMTQ3ODIsNDguODA4ODJhMi4wMjUxNSwyLjAyNTE1LDAsMCwwLTEuNDc5ODEuNTc3ODhsLS4xNjEtLjQ5MjI3aC0uNTU5MTh2NC43OWguODA1NDdWNTAuNjY4MTVhMS4xMzM0OSwxLjEzMzQ5LDAsMCwxLDEuMjYxODUtMS4xNTg0NiwxLjk4MzUsMS45ODM1LDAsMCwxLC40MDc4Ni4wNDc2M3YtLjczODg1YTIuNzE2MjYsMi43MTYyNiwwLDAsMC0uMjc1MjItLjAwOTY1IiB0cmFuc2Zvcm09InRyYW5zbGF0ZSgtNy4xOTc4NCAtMC4zNTg5MikiLz48cGF0aCBjbGFzcz0iY2xzLTEiIGQ9Ik05Ny45MTYwNSw0OC43NzA4M2ExLjgyMzYxLDEuODIzNjEsMCwwLDAtMi4wMzkzMSwxLjk4MjN2MS4wNjI5M2EyLjA0NDYzLDIuMDQ0NjMsMCwwLDAsNC4wODc4OSwwVjUwLjc1MzEzQTEuODI2MzYsMS44MjYzNiwwLDAsMCw5Ny45MTYwNSw0OC43NzA4M1ptMS4yNDM0NywyLjk5Nzg3YzAsLjg0NDY2LS4zNzk4MiwxLjI3MTU0LTEuMjQzNDcsMS4yNzE1NC0uODY0LDAtMS4yMzQxMy0uNDI2ODgtMS4yMzQxMy0xLjI3MTU0di0uOTY4MjZjMC0uODQ0NjEuMzc5ODItMS4yNjIxNSwxLjI0MzQ3LTEuMjYyMTUuODY0LDAsMS4yMzQxMy40MTc1NCwxLjIzNDEzLDEuMjYyMTVaIiB0cmFuc2Zvcm09InRyYW5zbGF0ZSgtNy4xOTc4NCAtMC4zNTg5MikiLz48cGF0aCBjbGFzcz0iY2xzLTEiIGQ9Ik04NS4zMDMzNSw0OC44OTQ0M2wtLjE1MTMzLjQ4MjkyYTEuODczMTgsMS44NzMxOCwwLDAsMC0xLjQ5OTctLjYwNjUxYy0xLjE3Njg0LDAtMS44NjgzNi41ODc1Mi0xLjg2ODM2LDIuMDIwM3YuOTk2NThjMCwxLjQyMzEzLjY5MTUyLDIuMDIsMS44NjgzNiwyLjAyYTEuODc0LDEuODc0LDAsMCwwLDEuNDk5Ny0uNjA2MjFsLjE1MTMzLjQ4MjkyaC41NTkxOHYtNC43OVptLTEuNTA4NzQsNC4xNDU4Yy0uODA2NjcsMC0xLjIwNTQ4LS4zOTg1MS0xLjIwNTQ4LTEuMzA5NDh2LS44OTIyOGMwLS45MTEuMzk4ODEtMS4zMDAxNSwxLjIwNTQ4LTEuMzAwMTVhMS4xMzA4MywxLjEzMDgzLDAsMCwxLDEuMjYyNDYsMS4xNDgyMnYxLjE5NTgzYTEuMTM3NDcsMS4xMzc0NywwLDAsMS0xLjI2MjQ2LDEuMTU3ODYiIHRyYW5zZm9ybT0idHJhbnNsYXRlKC03LjE5Nzg0IC0wLjM1ODkyKSIvPjxwYXRoIGNsYXNzPSJjbHMtMSIgZD0iTTc5LjAzMzczLDQ2Ljk5NjgySDc2LjQxNTY1djYuNjg3NjFoLjgzMzgxVjUxLjI1NTY3aDEuNzkzNjFjMS4zMDAxNCwwLDIuMDM5MjktLjY3MjgzLDIuMDM5MjktMS43NjQwN3YtLjczMDdjMC0xLjEwMDg5LS43MzkxNS0xLjc2NDA4LTIuMDQ4NjMtMS43NjQwOE04MC4yNTgyLDQ5LjQ5MTZjMCwuNjM2MDUtLjM3OTgzLjk2ODI1LTEuMTc3MTUuOTY4MjVINzcuMjQ5NDZWNDcuNzgzSDc5LjA5MDdjLjc4NzY3LDAsMS4xNjc1LjM0MTg0LDEuMTY3NS45Nzc5WiIgdHJhbnNmb3JtPSJ0cmFuc2xhdGUoLTcuMTk3ODQgLTAuMzU4OTIpIi8+PHBhdGggY2xhc3M9ImNscy0yIiBkPSJNNy42MDU3Myw0NS4xODE0NGEzLjAxODg4LDMuMDE4ODgsMCwwLDAsMS4xMzQxNiwxLjEyNTQ3TDMxLjk0MTY2LDU5LjcwMjQ2bC4wMDA3My0uMDAwNzJhMy4wNDQ0NSwzLjA0NDQ1LDAsMCwwLDMuMDgzODEsMEw1OC4yMjg3LDQ2LjMwNjE5YTMuMDQyNjQsMy4wNDI2NCwwLDAsMCwxLjU0MTE4LTIuNjY5NTVWMTYuODQ1NTNsLS4wMDA3Mi0uMDAwNzJhMy4wNDM2LDMuMDQzNiwwLDAsMC0xLjU0MTkxLTIuNjcwMjdMMzUuMDI0NzYuNzc5Vi43NzgyNmEzLjA0MDQ4LDMuMDQwNDgsMCwwLDAtMy4wODE2NSwwVi43NzlMOC43NDEzNCwxNC4xNzQ1NGEzLjA0MjMxLDMuMDQyMzEsMCwwLDAtMS41NDI2MywyLjY3MDI3bC0uMDAwNzIuMDAwNzJWNDMuNjM2NjRhMy4wMjQ4NCwzLjAyNDg0LDAsMCwwLC40MDcsMS41NDQ4IiB0cmFuc2Zvcm09InRyYW5zbGF0ZSgtNy4xOTc4NCAtMC4zNTg5MikiLz48cGF0aCBjbGFzcz0iY2xzLTMiIGQ9Ik0yNi4wNTUyNSw0MC40Mzk0OGEyLjk4Mzg3LDIuOTgzODcsMCwwLDEtNS45Njc3NCwwbC4wMDA3My4wMDA3Mi4wMDI4OS0yMC40ODNhMy4xMTA3NCwzLjExMDc0LDAsMCwxLDMuMzg4LTIuODk5MTMsNS4zMDYyNSw1LjMwNjI1LDAsMCwxLDQuMDY3MzMsMS44MTg1NmwuOTAxNjgsMS4wNzkxMkw0MC45MTM3NywzNC44NzM2OVYyMC4wNDA1MmgtLjAwMTQ1YTIuOTgzODcsMi45ODM4NywwLDEsMSw1Ljk2Nzc0LDBoLS4wMDA3Mkw0Ni44NzY0NCw0MC41MjJhMy4xMTExOCwzLjExMTE4LDAsMCwxLTMuMzg4LDIuODk5MTQsNS4zMDI3NCw1LjMwMjc0LDAsMCwxLTQuMDY3MzQtMS44MTg1N0wyNi4wNTM4LDI1LjYwNTU4VjQwLjQ0MDJaIiB0cmFuc2Zvcm09InRyYW5zbGF0ZSgtNy4xOTc4NCAtMC4zNTg5MikiLz48cG9seWdvbiBwb2ludHM9IjE0NC4wMDIgMTkuNzg4IDE0MC4wNjkgMTkuNzg4IDEzNS43MzYgMjYuNjU3IDEzMS41MTggMTkuNzg4IDEyNy40NDIgMTkuNzg4IDEzMy41MTMgMjkuNzA3IDEyNy4zODUgMzkuOTY4IDEzMS4yNjEgMzkuOTY4IDEzNS41NjUgMzMuMDQyIDEzOS43ODQgMzkuOTY4IDE0My44NiAzOS45NjggMTM3LjczMSAyOS45NjQgMTQ0LjAwMiAxOS43ODgiLz48cG9seWdvbiBwb2ludHM9IjEyMi4zNiAxOS43ODggMTIyLjM2IDMzLjUyNyAxMTQuNDM2IDE5Ljc4OCAxMTEuMTU4IDE5Ljc4OCAxMTEuMTU4IDM5Ljk2OCAxMTQuNDM2IDM5Ljk2OCAxMTQuNDM2IDI2LjMxNSAxMjIuMzYgMzkuOTY4IDEyNS42NjcgMzkuOTY4IDEyNS42NjcgMTkuNzg4IDEyMi4zNiAxOS43ODgiLz48cmVjdCB4PSIxMDQuOTU1ODQiIHk9IjE5Ljc4NzY2IiB3aWR0aD0iMy41MDYxMyIgaGVpZ2h0PSIyMC4xODA2NyIvPjxwYXRoIGQ9Ik0xMDkuNDU3MjQsMjcuMzI5NDZWMjYuMTg5NGMwLTMuOTA0OTUtMi44Nzg4MS02LjQ0MTkyLTcuOTI0MTMtNi40NDE5Mi01LjAxNjY4LDAtNy44OTU1LDIuNTM3LTcuODk1NSw2LjQ0MTkydjguMDk1MDVjMCwzLjkwNTI0LDIuOTA3NDYsNi40NDE5Miw3LjkyNDE0LDYuNDQxOTJzNy44OTU0OS0yLjUzNjY4LDcuODk1NDktNi40NDE5MlYyOS41NTI5NGgtOC4wMzgwN3YzLjI0OTI5aDQuNTMyMjV2MS4yODI2NmMwLDIuMTA5NTMtMS41OTYxNiwzLjM5MjE5LTQuNDE4MzEsMy4zOTIxOS0yLjc5MzIsMC00LjM4OTM3LTEuMjgyNjYtNC4zODkzNy0zLjM5MjE5VjI2LjM4OWMwLTIuMTA5MjIsMS41OTYxNy0zLjM5MTg3LDQuNDE4LTMuMzkxODcsMi43OTM1MSwwLDQuMzg5NjcsMS4yODI2NSw0LjM4OTY3LDMuMzkxODd2Ljk0MDUxWiIgdHJhbnNmb3JtPSJ0cmFuc2xhdGUoLTcuMTk3ODQgLTAuMzU4OTIpIi8+PHBvbHlnb24gcG9pbnRzPSI4MC40MiAxOS43ODggODAuNDIgMzMuNTI3IDcyLjQ5NiAxOS43ODggNjkuMjE4IDE5Ljc4OCA2OS4yMTggMzkuOTY4IDcyLjQ5NiAzOS45NjggNzIuNDk2IDI2LjMxNSA4MC40MiAzOS45NjggODMuNzI2IDM5Ljk2OCA4My43MjYgMTkuNzg4IDgwLjQyIDE5Ljc4OCIvPjxwYXRoIGNsYXNzPSJjbHMtMSIgZD0iTTE1NS4zMTczOSwzOS40MjI4N2guMzgxMjd2LS44NDkyaC4zMDE2YS44NjAzNi44NjAzNiwwLDAsMSwuNDIzNjIuMDcwNzQuNTMwNTQuNTMwNTQsMCwwLDEsLjIwMTMzLjQ5NHYuMTc0MTFsLjAwODU0LjA2NDkxYS4xMzEuMTMxLDAsMCwxLC4wMDU4My4wMjcyYy4wMDE5NS4wMTA1LjAwMjcyLjAxMzYxLjAwODU1LjAxODI3aC4zNTMyOGwtLjAxMjgyLS4wMjQxYS4yNDc2OC4yNDc2OCwwLDAsMS0uMDE3MS0uMTEwMzdjLS4wMDUtLjA2MS0uMDA1LS4xMTMxLS4wMDUtLjE2MTI5di0uMTYwOWEuNjE1ODguNjE1ODgsMCwwLDAtLjExODE2LS4zMzY1Ny41NDg5LjU0ODksMCwwLDAtLjM3NjIxLS4yMTE0My45Mjg3MS45Mjg3MSwwLDAsMCwuMzEzNjUtLjEwMTgzLjQ3MDQyLjQ3MDQyLDAsMCwwLC4yMTA2NC0uNDI3NTEuNTMxMjguNTMxMjgsMCwwLDAtLjMzMzQ2LS41NDgzOCwxLjY1OTM0LDEuNjU5MzQsMCwwLDAtLjU5MTE0LS4wNzczNGgtLjc1NDM3Wm0xLjA4NDM0LTEuMTY0MzlhLjk4NjQyLjk4NjQyLDAsMCwxLS4zNjI2Mi4wNDgxOWgtLjM0MDQ1di0uNzg2MjRoLjMyNDkxYS45NTkwNy45NTkwNywwLDAsMSwuNDU4MjIuMDg0MzQuMzI3MTMuMzI3MTMsMCwwLDEsLjE0MzQyLjMxNTE5LjMzMjc1LjMzMjc1LDAsMCwxLS4yMjM0OC4zMzg1Mm0xLjEwNzI2LTEuMjk4MDlhMS45MTU2MywxLjkxNTYzLDAsMCwwLTEuNDAwMy0uNTcyNDgsMS45Njk2OCwxLjk2OTY4LDAsMCwwLDAsMy45MzkzNCwxLjk3MzE4LDEuOTczMTgsMCwwLDAsMS40MDAzLTMuMzY2ODZtLS4yMDAxNS4xOTU0OWExLjYxMzI1LDEuNjEzMjUsMCwwLDEsLjQ5NDM1LDEuMTk4MiwxLjY5MjYzLDEuNjkyNjMsMCwwLDEtMi44OTMxLDEuMjA0LDEuNjcxLDEuNjcxLDAsMCwxLS40OTItMS4yMDQsMS42OTg0NiwxLjY5ODQ2LDAsMCwxLDEuNjkwNjMtMS43MDExMSwxLjYxNTIsMS42MTUyLDAsMCwxLDEuMjAwMTUuNTAyOTEiIHRyYW5zZm9ybT0idHJhbnNsYXRlKC03LjE5Nzg0IC0wLjM1ODkyKSIvPjwvc3ZnPg==;" vertex="1" parent="1">
                    <mxGeometry x="390" y="215" width="151" height="60" as="geometry"/>
                </mxCell>
                <mxCell id="94" value="" style="edgeStyle=elbowEdgeStyle;elbow=horizontal;endArrow=none;html=1;fontSize=32;" edge="1" parent="1" source="22" target="93">
                    <mxGeometry width="50" height="50" relative="1" as="geometry">
                        <mxPoint x="150" y="320" as="sourcePoint"/>
                        <mxPoint x="459.9999999999999" y="245" as="targetPoint"/>
                    </mxGeometry>
                </mxCell>
                <mxCell id="95" value="" style="shape=image;verticalLabelPosition=bottom;labelBackgroundColor=#ffffff;verticalAlign=top;aspect=fixed;imageAspect=0;image=data:image/svg+xml,PHN2ZyB4bWxucz0iaHR0cDovL3d3dy53My5vcmcvMjAwMC9zdmciIHdpZHRoPSIxNjgwIiBoZWlnaHQ9IjEwMDAiIHZpZXdCb3g9IjAgMCAxNjgwIDEwMDAiIGZpbGw9Im5vbmUiPgo8cGF0aCBmaWxsLXJ1bGU9ImV2ZW5vZGQiIGNsaXAtcnVsZT0iZXZlbm9kZCIgZD0iTTc0MS4zMjUgMjYwLjgxNEg3NzQuOTc3TDkyNC4xIDQ2Ni4xNDJMMTA3Ni41MiAyNjAuODE0TDEyODMuODQgMEw5NDMuMjM1IDQ4Ny43MjFMMTExOC43NSA3MjcuNzA3SDEwODMuNzhMOTI0LjEgNTA5LjMwMUw3NjMuNzYgNzI3LjcwN0g3MjkuNDQ4TDkwNi4yODQgNDg3LjcyMUw3NDEuMzI1IDI2MC44MTRaTTM5Ni4yMzEgMjYwLjgxNEg3MTIuOTUyVjI4NS42NjNINDI1LjI2NFY0NzIuNjgxSDY5NS43OTZWNDk3LjUzSDQyNS4yNjRWNzAyLjg1OEg3MTYuMjUxVjcyNy43MDdIMzk2LjIzMVYyNjAuODE0Wk0xMTMxLjI5IDI2MC44MTRWMjg1LjY2M0wxMjk2LjkxIDI4NS42NjNWNzI3LjcwN0gxMzI1Ljk0VjI4NS42NjNIMTQ5Mi4yMlYyNjAuODE0SDExMzEuMjlaIiBmaWxsPSJibGFjayIvPgo8cGF0aCBkPSJNMCAyNjAuODE0SDM2LjI5MUw1MzYuNzIyIDEwMDBMMzI5LjkxOCA3MjcuNzA3TDMwLjM1MjQgMjk2LjEyNUwyOS4wMzI4IDcyNy43MDdIMFYyNjAuODE0WiIgZmlsbD0iYmxhY2siLz4KPHBhdGggZmlsbC1ydWxlPSJldmVub2RkIiBjbGlwLXJ1bGU9ImV2ZW5vZGQiIGQ9Ik0xNjM5Ljk4IDY5Ni42MTZDMTYxNy4zOSA2OTYuNjE2IDE2MDIuMiA2ODUuMSAxNjAxLjA4IDY2Ny4wOTNIMTYxNi43NUMxNjE4LjA5IDY3Ni42NTUgMTYyNy41NiA2ODIuNzI3IDE2NDEuMTggNjgyLjcyN0MxNjUzLjg5IDY4Mi43MjcgMTY2My4yMiA2NzYuMjM2IDE2NjMuMjIgNjY3LjMwMkMxNjYzLjIyIDY1OS42MjUgMTY1Ny4yOCA2NTUuMDE5IDE2NDMuOCA2NTEuODc4TDE2MzAuNjYgNjQ4LjczN0MxNjEyLjIzIDY0NC40OCAxNjAzLjgzIDYzNS42ODYgMTYwMy44MyA2MjAuODg5QzE2MDMuODMgNjAyLjk1MiAxNjE4LjY2IDU5MS4wMTcgMTY0MC45IDU5MS4wMTdDMTY2MS41OSA1OTEuMDE3IDE2NzYuNyA2MDIuOTUyIDE2NzcuNjIgNjE5LjkxMkgxNjYyLjIzQzE2NjAuNzQgNjEwLjYzIDE2NTIuNTUgNjA0LjgzNyAxNjQwLjY5IDYwNC44MzdDMTYyOC4xOSA2MDQuODM3IDE2MTkuODYgNjEwLjc2OSAxNjE5Ljg2IDYxOS44NDJDMTYxOS44NiA2MjcuMDMxIDE2MjUuMjMgNjMxLjE0OSAxNjM4LjUgNjM0LjIyTDE2NDkuNzMgNjM2Ljk0MkMxNjcwLjYzIDY0MS43NTggMTY3OS4yNSA2NTAuMTMzIDE2NzkuMjUgNjY1LjI3OEMxNjc5LjI1IDY4NC41NDEgMTY2NC4xMyA2OTYuNjE2IDE2MzkuOTggNjk2LjYxNlpNMTUxNy44MiA2NjhDMTUxNy44MiA2ODUuMzA5IDE1MzAuNDYgNjk2LjYxNiAxNTQ4Ljg5IDY5Ni42MTZDMTU2OC41MiA2OTYuNjE2IDE1ODAuMzkgNjg0Ljk2IDE1ODAuMzkgNjY0LjcyVjU5My40NkgxNTY0LjU3VjY2NC42NUMxNTY0LjU3IDY3NS44ODcgMTU1OC44NSA2ODEuODg5IDE1NDguNzUgNjgxLjg4OUMxNTM5LjcxIDY4MS44ODkgMTUzMy41NyA2NzYuMzA2IDE1MzMuMzYgNjY4SDE1MTcuODJaTTE0ODkuMjkgNjk1LjM2QzE0OTUuMjkgNjk1LjM2IDE0OTkuNjcgNjkwLjgyMyAxNDk5LjY3IDY4NC45NkMxNDk5LjY3IDY3OS4wOTggMTQ5NS4yOSA2NzQuNTYxIDE0ODkuMjkgNjc0LjU2MUMxNDgzLjM2IDY3NC41NjEgMTQ3OC45MSA2NzkuMDk4IDE0NzguOTEgNjg0Ljk2QzE0NzguOTEgNjkwLjgyMyAxNDgzLjM2IDY5NS4zNiAxNDg5LjI5IDY5NS4zNloiIGZpbGw9ImJsYWNrIi8+Cjwvc3ZnPg==;" vertex="1" parent="1">
                    <mxGeometry x="697.72" y="320" width="100.65" height="60" as="geometry"/>
                </mxCell>
                <mxCell id="96" value="" style="shape=image;verticalLabelPosition=bottom;labelBackgroundColor=#ffffff;verticalAlign=top;aspect=fixed;imageAspect=0;image=data:image/svg+xml,PHN2ZyB4bWxucz0iaHR0cDovL3d3dy53My5vcmcvMjAwMC9zdmciIHhtbG5zOnhsaW5rPSJodHRwOi8vd3d3LnczLm9yZy8xOTk5L3hsaW5rIiB2aWV3Qm94PSIwIDAgMTA3IDI1IiBmaWxsPSIjZmZmIiBmaWxsLXJ1bGU9ImV2ZW5vZGQiIHN0cm9rZT0iIzAwMCIgc3Ryb2tlLWxpbmVjYXA9InJvdW5kIiBzdHJva2UtbGluZWpvaW49InJvdW5kIj48dXNlIHhsaW5rOmhyZWY9IiNBIiB4PSIuNSIgeT0iLjUiLz48c3ltYm9sIGlkPSJBIiBvdmVyZmxvdz0idmlzaWJsZSI+PHBhdGggZD0iTTMyLjY2OSAyMy41MDVWLjQ2aDEuMjV2My42MjVhNC43NSA0Ljc1IDAgMCAwIC40MDgtLjUxMWMxLjA0NC0yLjE2NiAzLjI0Ni0zLjUzMyA1LjY1LTMuNTA2IDIuODUtLjA4NSA1LjE2Ni45NyA2LjUyNyAzLjUwNmExMS4yNyAxMS4yNyAwIDAgMSAuMjcyIDEwLjMzMWMtMS4yNjggMi44NDItNC40IDQuMjU1LTcuNzUzIDMuNzM2YTYuMjcgNi4yNyAwIDAgMS01LjAwNC0zLjMwMnY5LjE2NXptMS4yNS0xNC44OTNsLjI4IDIuNzA2Yy40OTQgMy4wOCAyLjMxNSA0LjkgNS4xNzQgNS4yNDJhNS44OCA1Ljg4IDAgMCAwIDYuNDU5LTMuNzM2YzEuMTEyLTIuNjUgMS4wMy01LjY1LS4yMi04LjIzOGE1Ljc2IDUuNzYgMCAwIDAtNi4wNjgtMy4zNTMgNS42MSA1LjYxIDAgMCAwLTUuMDEyIDQuMTQ0Yy0uMjY2IDEuMDY1LS40NzEgMi4xNDUtLjYxMyAzLjIzNHptMzkuNDk4IDMuMTMyYTYuNzQgNi43NCAwIDAgMS02LjU4NyA1Ljk1N2MtNS4yNDIuMjY0LTcuNzAyLTMuMjE3LTguMDkzLTcuMjM0YTExLjU5IDExLjU5IDAgMCAxIDEuMDIxLTYuMzgzQTcuMTIgNy4xMiAwIDAgMSA2Ny4xNy4xMWE2LjgxIDYuODEgMCAwIDEgNi4wNDIgNS4xODNjLjI2NiAxLjI2NS40NjIgMi41NDQuNTg3IDMuODNINjAuMDMyYy0uMjU1IDMuNjQyIDEuNzAyIDYuNTcgNC40NzYgNy4yNzYgMy40NTUuODUgNi40MDgtLjY0NyA3LjQ4LTMuOTMyLjIzOC0uODQzLjY3Mi0uOTYyIDEuNDM4LS43MjN6TTYwLjAyMiA3Ljk1N2gxMi4zMTRjLS4wNzctMy44OC0yLjQ5My02LjctNS43Ny02LjczMi0zLjctLjA2LTYuMzgzIDIuNjQ3LTYuNTQ0IDYuNzMyem0xNS45NCAzLjg3MmgxLjIwN2E0Ljg0IDQuODQgMCAwIDAgMi44NDIgNC4xNyA3LjQzIDcuNDMgMCAwIDAgNi40NTEtLjE3IDIuOSAyLjkgMCAwIDAgMS43MDItMi44NTEgMi42MyAyLjYzIDAgMCAwLTEuNzctMi42M2MtMS4zMjgtLjQ5NC0yLjc0LS43NjYtNC4wOTMtMS4yYTMwLjAxIDMwLjAxIDAgMCAxLTQuMTE5LTEuNTA2Yy0yLjE4LTEuMDY0LTIuMzE1LTUuMjA4LjE1My02LjUyYTguNjkgOC42OSAwIDAgMSA4LjMwNi0uMTI4YzEuNTk0Ljg4IDIuNDc1IDIuNjU3IDIuMjEzIDQuNDZoLTEuMDM1YzAtLjA1LS4wOTQtLjA5NC0uMDk0LS4xNDUtLjEyOC0zLjMtMi45MDItNC4zMzItNS44OC00LjA0Mi0uOS4xLTEuNzUzLjM3Mi0yLjU1My43NzRhMi41NSAyLjU1IDAgMCAwLTEuNDggMi41NTMgMi41NSAyLjU1IDAgMCAwIDEuNzAyIDIuNGMxLjMuNDc3IDIuNjguNzgzIDQuMDI1IDEuMTU3bDMuMjUuODVhMy44NCAzLjg0IDAgMCAxIDIuNjM4IDMuNDY0Yy4yNiAxLjc0NS0uNjMgMy40Ni0yLjIwNCA0LjI1NS0yLjg0MiAxLjYwOC03LjUyMyAxLjE4My05LjYwOC0uODUtMS4wNjctMS4wNzMtMS42NjItMi41My0xLjY1LTQuMDQyem0yOC43OC02LjM3NGgtMS4xMzJjMC0uMTUzLS4wNi0uMy0uMDc3LS40MTdhMy43IDMuNyAwIDAgMC0zLjAxMy0zLjU1NyA3LjQzIDcuNDMgMCAwIDAtNC43NzQuMjMgMi45IDIuOSAwIDAgMC0yLjEwMiAyLjc2NiAyLjY3IDIuNjcgMCAwIDAgMi4wNDIgMi42ODlsNS4xNzQgMS4zMjhhMTQuMzkgMTQuMzkgMCAwIDEgMS42NS41MDJjMS42NS42IDIuNzcgMi4xMzIgMi44MiAzLjg4M2E0LjI1IDQuMjUgMCAwIDEtMi42IDQuMDQgOS40NyA5LjQ3IDAgMCAxLTcuNjU5LjA3NyA1LjMxIDUuMzEgMCAwIDEtMy4yLTUuMTU3aDEuMTA2Yy40MTYgMi4wMDUgMS43OTMgMy42NzUgMy42ODIgNC40NjVzNC4wNDYuNTk2IDUuNzY0LS41MTZhMy4wNCAzLjA0IDAgMCAwIDEuNjM0LTIuODQyIDIuNjMgMi42MyAwIDAgMC0xLjc5Ni0yLjYxM2MtMS4zMjgtLjQ5NC0yLjc0LS43NTctNC4wOTMtMS4yYTMwLjE1IDMwLjE1IDAgMCAxLTQuMTQ0LTEuNDg5Yy0yLjEyOC0xLjA0Ny0yLjI5OC01LjE1Ny4xMjgtNi40NjhhOC41NyA4LjU3IDAgMCAxIDguNDQyLS4wOTQgNC40NSA0LjQ1IDAgMCAxIDIuMTM2IDQuMzY2em0tNzQuMTMgMTEuODNhMS45NSAxLjk1IDAgMCAxLTIuNDE3LS45MTlsLTQuNC02LjA4NS0uNjM4LS44NS01LjEwNiA2Ljk0NGExLjg3IDEuODcgMCAwIDEtMi4yOTguOTAybDYuNTc4LTguODI1LTYuMTItNy45NzRjLjkwOC0uMzI4IDEuOTIuMDI4IDIuNDI1Ljg1bDQuNTYgNi4xNiA0LjU4Ny02LjEzNmExLjgzIDEuODMgMCAwIDEgMi4yODEtLjg1MWwtMi4zNzUgMy4xNTEtMy4yMTcgNC4xODdhLjg1Ljg1IDAgMCAwIDAgMS4yNjhsNi4xMjcgOC4xNzh6TTU4LjU0Mi4zOTN2MS4yYTYuMTcgNi4xNyAwIDAgMC02LjU3IDYuMzc0cTAgNC4yMDQgMCA4LjQwOHYuOTUzaC0xLjIxN1YuNDY4aDEuMnYzLjQ1NUM1My40MjcgMS40MDMgNTUuNjk5LjQ2OCA1OC41NS40ek0uMDAyIDguMzUybC41MzYtMi42NDdDMi4wMS40NzEgOC4wMS0xLjcwNyAxMi4xMzggMS41MzVjMi40MTcgMS44OTggMy4wMiA0LjU4NyAyLjkwMiA3LjYxN0gxLjQyM2MtLjIyIDUuNDEyIDMuNjg1IDguNjggOC42OCA3LjAxMiAxLjY0Ni0uNiAyLjg4NS0xLjk2OCAzLjI5My0zLjY2OC4yNjQtLjg1LjctLjk5NiAxLjQ5OC0uNzVhNi45MSA2LjkxIDAgMCAxLTMuMzAyIDUuMDQ3IDggOCAwIDAgMS05LjMxOS0xLjE5MUMxLjA1NyAxNC4yMzUuMzIzIDEyLjUwNy4xOCAxMC42ODJjMC0uMy0uMS0uNTgtLjE3LS44NVEwIDkuMDc1IDAgOC4zNTJ6bTEuNDM4LS4zNjZoMTIuMzE0Yy0uMDc3LTMuOTIzLTIuNTUzLTYuNzA2LTUuODU1LTYuNzMyLTMuNjc2LS4wNS02LjMwNiAyLjY3Mi02LjQ2OCA2LjcxNXoiIHN0cm9rZT0ibm9uZSIgZmlsbD0iIzAwMCIgZmlsbC1ydWxlPSJub256ZXJvIi8+PC9zeW1ib2w+PC9zdmc+;" vertex="1" parent="1">
                    <mxGeometry x="691.37" y="126" width="107" height="25" as="geometry"/>
                </mxCell>
            </root>
        </mxGraphModel>
    </diagram>
</mxfile>